<svg version="1" xmlns="http://www.w3.org/2000/svg" width="1333.333" height="1333.333" viewBox="0 0 1000.000000 1000.000000"><path d="M681.6 263.7c-.2.2-3.6.5-7.7.9-9.2.6-14.5 1.2-18.4 1.9-4.2.7-8.4 1.4-13 2-2.2.4-4.8.8-5.7 1.1-1.9.6-5.4 1.3-8.3 1.9-7.1 1.3-36.5 10.6-39 12.4-.5.4-3.7 1.8-7 3.1-9 3.6-31 15.5-37 20.2-.5.4-4.2 3.1-8.1 6-23.5 17.3-43.7 39.8-61 67.8-1.5 2.5-2.6 4.5-2.4 4.5.1 0-1.2 2.4-2.9 5.3-1.7 2.8-4 7.3-5.2 10-1.2 2.6-3 6.5-4 8.6-1.1 2.2-1.9 4.8-1.9 5.7 0 1-.4 2-.9 2.3-1.9 1.2-9.7 29.1-12 43.1-.6 3.3-1.3 7.3-1.5 8.9-1.2 7.1-2 20.3-2 33.6 0 17.8 1.3 32.1 4.1 44.5.2 1.1.6 3.3.9 5 .3 1.6 1.2 5.5 2 8.5s1.6 6.2 1.9 7.1c3.7 15.9 15.8 44.1 26.2 61.1 11.2 18.1 27.2 36.8 41.7 48.4 2.7 2.1 5.4 4.4 6 4.9 4.7 4.4 28.6 19.6 39.6 25.4 18.1 9.4 41.2 17.8 59.3 21.5 8.7 1.8 18.2 3.5 22.7 4.1 2.5.3 5.6.8 7 1 3 .5 14.9 1.6 24 2.1 8.3.5 42.1.4 48 0 8.3-.7 16.9-1.7 19.2-2.2 1.3-.2 3.9-.7 5.8-1 6-1 23.9-5.3 31.4-7.6 3.9-1.2 7.3-2.3 7.6-2.3.3-.1 1.4-.5 2.5-1 1.1-.4 5.3-2.1 9.2-3.6 22.4-8.8 50.2-25.9 71.7-44.1 9.3-7.8 29.4-28.7 36.7-37.9 1.8-2.4 3.6-4.6 4-4.9 1.4-1.2 2.6-4.4 2.2-6.1-.3-1.1-3.9-4.6-8-7.9-8.8-7-8.5-7-16.4 2.2-14.2 16.6-33.3 32.7-48.4 40.9-14.1 7.6-26.4 13.6-30 14.5-.5.2-5.7 2-11.5 4-9.8 3.4-21.9 6.7-29.3 7.9-1.7.3-3.9.8-4.7 1-.8.3-3.5.7-6 .9-2.5.3-5.6.8-7 1.1-7.5 1.5-39.8 2.2-51 1-14.9-1.6-28.4-4.5-38.5-8.4-11.8-4.5-28.6-13.1-34-17.3-.5-.4-4.8-3.6-9.4-7-11.1-8.2-28.1-25-37-36.5-3.9-5-7.1-9.3-7.1-9.6 0-.3-1.8-3.2-4-6.5-6.2-9.5-17.4-33.5-22.3-48.2-7.2-21.3-11.7-42.7-13.4-63.6-4.5-56.9 10.5-113.2 40.2-150.4 7.1-9 21-21.8 30.3-28 16.7-11.1 38.7-19.9 57.2-22.6 1.9-.3 4.9-.8 6.5-1 7.8-1.4 34.2-1.9 43-1 6.3.7 13.9 1.8 15.5 2.1.8.2 2.9.6 4.5 1 1.7.3 4.1.8 5.5 1.1 1.4.3 3.2.7 4.1.9 5 1 21.5 7.2 29.8 11.1 19 9.2 36.1 21.2 50.7 35.8 8.9 8.9 22.8 25.7 25.4 30.6.7 1.4 1.6 2.7 2 3 2.2 1.6 15 25.7 20 37.5 5.1 12.2 7.1 14.8 10.4 13.6 1.1-.5 2.4-.9 2.9-.9 2.1-.2 12.4-3.5 13.5-4.5.8-.6 1.1-2.1.7-3.6-.3-1.4-.7-4.4-1-6.6-.3-2.2-.7-5.8-1.1-8-.3-2.2-.7-5.4-.9-7-.3-1.7-.7-4.6-1-6.5-.8-5.3-1.5-10.1-2-14.5-.2-2.2-.6-5.4-.9-7-.2-1.7-.7-5.3-1.1-8-.4-2.8-.8-6.1-1-7.5-.2-1.4-.7-4.8-1-7.5-.3-2.8-.8-6.1-1.1-7.5-.2-1.4-.6-5-.9-8-.3-3-.7-6.6-1-8-.3-1.4-.7-4.8-1-7.5-.3-2.8-1-8.4-1.5-12.5s-1.2-11.1-1.5-15.5c-.8-10.6-1.3-12.2-3.8-12.9-3.9-1-14.3-.6-16 .6-.9.7-3 5.6-4.8 10.8-1.8 5.2-3.6 10.1-4.2 10.7-1.6 2.1-4.5 1.5-13.6-2.8-12.8-6.2-26.4-11.4-39.7-15.3-10.2-3-15.6-4.4-27.9-7.2-3.9-.9-14.1-2.8-21-3.8-11.4-1.7-11.2-1.7-29-3.2-7.6-.7-42.4-1.2-42.9-.7zM86 376.3c-2.2 1.1-2.4 1.8-2.4 9.1-.1 4.7.4 8.4 1 9.1.8.7 6.1 1.2 14.5 1.3 14.9.1 20.2 1.4 23.3 5.5 1.7 2.3 2 4.5 2.2 17.4 1.7 90.7 1.8 135.4.8 227.5-.8 70.8-.3 65.3-6 68.9-3.2 2-5 2.2-19.4 2.3-8.8.1-16.3.5-16.7.9-.4.4-.7 4.2-.8 8.5-.2 9.9.5 10.8 8.2 10.5 8.2-.4 40.5-1.5 42.3-1.4h7.5c3.3-.1 10.5 0 16 0 11.3.1 12 .1 13.8 0 4.1-.2 45.2 1.2 45.5 1.6.9.9 4.1-1.6 4.1-3.3.2-8.8-.1-14.8-1-15.7-.6-.6-7.4-1.1-15.7-1.2-8.1-.1-15.4-.3-16.2-.5-4.8-1.2-8.7-6.4-8.8-11.8-.1-.8-.4-14.8-.7-31-.9-38.6-1.3-108.1-.7-109.8.6-1.7 14.6-1.4 21.4.4 9.5 2.5 14 6.1 29.8 24.4 3.6 4.1 6.7 7.7 7 8 .3.3 2.8 3.2 5.5 6.5 2.8 3.3 5.5 6.5 6 7.1 1.7 1.8 8.7 10.2 20.4 24.4 6.2 7.4 12.9 15.5 14.9 17.9 8.2 9.8 29.9 37 35 43.9 6.1 8.3 7.3 11.4 5.9 15.5-1.3 3.9-5.5 5.7-13.1 5.7-5.2 0-6.7.4-7.4 1.7-1 2-1 15.9 0 16.9.4.3 5.6.5 11.5.4 33.2-.6 41.5-.9 42-1.4.3-.3 1.3-.1 2.2.4 1 .5 2.3.5 3 0 .8-.4 2.7-.4 4.2 0 1.6.5 3.1.5 3.3.2.5-.8 21-.6 23.1.2.8.3 1.7.1 2-.5.4-.5 1-.7 1.5-.4.5.3 2.9.5 5.2.5 2.4 0 5 0 5.8-.1.8 0 7.8.3 15.5.5 23.9.9 30.2.9 31.4.2 1.6-1 1.5-17.2-.1-18.2-.7-.5-8.5-.9-17.3-1-8.8-.1-17.3-.5-19-.9-1.6-.3-4.3-.9-6-1.1-4.7-.9-13.1-5.2-16.8-8.7-2.9-2.7-9.7-10.2-22.2-24.6-1.6-1.9-3.9-4.4-5-5.5-1.1-1.2-4.9-5.4-8.5-9.5-3.6-4.1-7.2-8.2-8-9.1-1.5-1.5-12.8-14.3-16.2-18.2-.9-1.1-4.8-5.4-8.5-9.6-3.7-4.2-9-10.1-11.7-13.2-2.7-3-8.1-9.1-12-13.5-3.9-4.3-8.9-10-11.1-12.5-2.2-2.5-4.2-4.7-4.5-5-1-1-14.8-16.6-16.6-18.8-1-1.3-3.5-4-5.4-6.1-1.9-2.1-6.6-7.3-10.5-11.7-3.8-4.3-8-8.9-9.2-10.2L242 537l13.3-14.8c7.2-8.1 13.9-15.4 14.7-16.3.8-.8 8.3-8.7 16.5-17.4 28.7-30.4 70.7-71.8 80.3-79 .7-.6 1.8-1.5 2.6-2.1 3.3-3 12.8-7.5 19.8-9.4 5.3-1.4 11-2.1 17.8-2.2 8.1-.1 10.3-.4 10.9-1.7.5-.9.8-5.1.9-9.3 0-7.5-.1-7.7-2.8-8.7-1.6-.5-3-.8-3.2-.5-.7.6-27 1.7-42.8 1.7-17.6 0-52-1.2-53-1.8-2-1.2-3.1 2.8-2.8 10.7l.3 8.3 6.9.2c9.5.3 12.7 3.5 9.4 9.6-.9 1.7-27.5 33.3-37.4 44.3-1.1 1.2-3.9 4.5-6.4 7.4-2.5 2.9-5.2 6-6 6.9-.9.9-4.3 4.7-7.5 8.6-3.3 3.8-6.7 7.7-7.5 8.5-.8.8-5.1 5.5-9.5 10.5-4.4 4.9-8.2 9.2-8.5 9.5-.3.3-4.3 4.8-9 10-16 18-30.2 31.6-35.4 34-6.6 3-8.7 3.3-18.6 3.4l-8.5.1.1-25c.2-28 1.3-99 1.8-110.5.7-14.9 2.8-16.2 25.8-16.3 9.7 0 16.1-.4 16.5-1 .9-1.5.5-16.9-.5-17.9-1.1-1.1-2.9-1.1-24.7-.2-31.7 1.2-103.8.6-106.3-1-.5-.3-1.9.1-3.2.7z"/></svg>